<svg width="20" height="21" viewBox="0 0 20 21" fill="none" xmlns="http://www.w3.org/2000/svg">
<path d="M10 6.25V4.75M10 6.25C8.645 6.25 7.303 6.306 5.976 6.416C4.845 6.51 4 7.473 4 8.608V11.121C5.966 10.876 7.968 10.75 10 10.75C12.0057 10.7494 14.0096 10.8733 16 11.121M10 6.25C11.355 6.25 12.697 6.306 14.024 6.416C15.155 6.51 16 7.473 16 8.608V11.121M16 11.121C16.39 11.17 16.777 11.223 17.163 11.281C18.233 11.441 19 12.375 19 13.456V18.625C19 19.246 18.496 19.75 17.875 19.75H2.125C1.82663 19.75 1.54048 19.6315 1.3295 19.4205C1.11853 19.2095 1 18.9234 1 18.625V13.455C1 12.375 1.768 11.441 2.837 11.281C3.22399 11.2226 3.61169 11.1689 4 11.12M13 6.25V4.75M7 6.25V4.75M19 14.5L17.5 15.25C17.0343 15.4829 16.5207 15.6041 16 15.6041C15.4793 15.6041 14.9657 15.4829 14.5 15.25C14.0343 15.0171 13.5207 14.8959 13 14.8959C12.4793 14.8959 11.9657 15.0171 11.5 15.25C11.0343 15.4829 10.5207 15.6041 10 15.6041C9.47929 15.6041 8.96573 15.4829 8.5 15.25C8.03427 15.0171 7.52071 14.8959 7 14.8959C6.47929 14.8959 5.96573 15.0171 5.5 15.25C5.03427 15.4829 4.52071 15.6041 4 15.6041C3.47929 15.6041 2.96573 15.4829 2.5 15.25L1 14.5M10.265 1.11C10.3175 1.16243 10.3533 1.22924 10.3678 1.302C10.3823 1.37475 10.3749 1.45018 10.3465 1.51873C10.3181 1.58728 10.2701 1.64587 10.2084 1.6871C10.1467 1.72832 10.0742 1.75033 10 1.75033C9.92581 1.75033 9.85329 1.72832 9.79161 1.6871C9.72993 1.64587 9.68187 1.58728 9.6535 1.51873C9.62513 1.45018 9.61773 1.37475 9.63224 1.302C9.64675 1.22924 9.68251 1.16243 9.735 1.11L10 0.844999L10.265 1.11ZM7.265 1.11C7.31749 1.16243 7.35325 1.22924 7.36776 1.302C7.38227 1.37475 7.37487 1.45018 7.3465 1.51873C7.31813 1.58728 7.27007 1.64587 7.20839 1.6871C7.14671 1.72832 7.07419 1.75033 7 1.75033C6.92581 1.75033 6.85329 1.72832 6.79161 1.6871C6.72993 1.64587 6.68187 1.58728 6.6535 1.51873C6.62513 1.45018 6.61773 1.37475 6.63224 1.302C6.64675 1.22924 6.68251 1.16243 6.735 1.11L7 0.844999L7.265 1.11ZM13.265 1.11C13.3175 1.16243 13.3533 1.22924 13.3678 1.302C13.3823 1.37475 13.3749 1.45018 13.3465 1.51873C13.3181 1.58728 13.2701 1.64587 13.2084 1.6871C13.1467 1.72832 13.0742 1.75033 13 1.75033C12.9258 1.75033 12.8533 1.72832 12.7916 1.6871C12.7299 1.64587 12.6819 1.58728 12.6535 1.51873C12.6251 1.45018 12.6177 1.37475 12.6322 1.302C12.6467 1.22924 12.6825 1.16243 12.735 1.11L13 0.844999L13.265 1.11Z" stroke="#818181" stroke-width="1.5" stroke-linecap="round" stroke-linejoin="round"/>
</svg>
