<svg width="24" height="24" viewBox="0 0 24 24" fill="none" xmlns="http://www.w3.org/2000/svg">
<path fill-rule="evenodd" clip-rule="evenodd" d="M12 24C18.6274 24 24 18.6274 24 12C24 5.37258 18.6274 0 12 0C5.37258 0 0 5.37258 0 12C0 18.6274 5.37258 24 12 24ZM14.9271 8.93162C15.6282 8.93162 16.1965 8.36329 16.1965 7.66222C16.1965 6.96115 15.6282 6.39282 14.9271 6.39282C14.2261 6.39282 13.6577 6.96115 13.6577 7.66222C13.6577 8.36329 14.2261 8.93162 14.9271 8.93162ZM10.4424 9.76402H16.2532V15.7028H17.2411V17.6072H12.6278V15.7028H13.6138V11.6825H10.4415V15.7028H11.5984V17.6091H6.83123V15.7047H7.81859V11.6844H6.76036V9.78009H7.81859V9.45364C7.81859 6.88603 10.0617 6.54777 11.2748 6.54777C11.5861 6.54673 11.8971 6.56551 12.206 6.60399V8.66375C12.206 8.66375 12.008 8.62123 11.571 8.62123C11.1903 8.62123 10.4424 8.63541 10.4424 9.38325V9.76402Z" fill="white"/>
</svg>
